<mxfile host="app.diagrams.net" modified="2023-07-21T05:58:40.952Z" agent="Mozilla/5.0 (Macintosh; Intel Mac OS X 10_15_7) AppleWebKit/537.36 (KHTML, like Gecko) Chrome/114.0.0.0 Safari/537.36" etag="UCVwayqC6QdfoWVwPOqS" version="21.6.3" type="github">
  <diagram id="C5RBs43oDa-KdzZeNtuy" name="Page-1">
    <mxGraphModel dx="2020" dy="1807" grid="1" gridSize="10" guides="1" tooltips="1" connect="1" arrows="1" fold="1" page="1" pageScale="1" pageWidth="827" pageHeight="1169" math="0" shadow="0">
      <root>
        <mxCell id="WIyWlLk6GJQsqaUBKTNV-0" />
        <mxCell id="WIyWlLk6GJQsqaUBKTNV-1" parent="WIyWlLk6GJQsqaUBKTNV-0" />
        <mxCell id="WIyWlLk6GJQsqaUBKTNV-2" value="" style="rounded=0;html=1;jettySize=auto;orthogonalLoop=1;fontSize=11;endArrow=block;endFill=0;endSize=8;strokeWidth=1;shadow=0;labelBackgroundColor=none;edgeStyle=orthogonalEdgeStyle;" parent="WIyWlLk6GJQsqaUBKTNV-1" edge="1">
          <mxGeometry relative="1" as="geometry">
            <mxPoint x="220" y="110" as="sourcePoint" />
            <mxPoint x="220" y="150" as="targetPoint" />
            <Array as="points">
              <mxPoint x="220" y="130" />
              <mxPoint x="220" y="130" />
            </Array>
          </mxGeometry>
        </mxCell>
        <mxCell id="WIyWlLk6GJQsqaUBKTNV-3" value="出现大量P0报警&lt;br&gt;or&lt;br&gt;群里有批量反馈服务不可用" style="rounded=1;whiteSpace=wrap;html=1;fontSize=12;glass=0;strokeWidth=1;shadow=0;" parent="WIyWlLk6GJQsqaUBKTNV-1" vertex="1">
          <mxGeometry x="120" y="50" width="200" height="60" as="geometry" />
        </mxCell>
        <mxCell id="WIyWlLk6GJQsqaUBKTNV-5" value="Yes" style="edgeStyle=orthogonalEdgeStyle;rounded=0;html=1;jettySize=auto;orthogonalLoop=1;fontSize=11;endArrow=block;endFill=0;endSize=8;strokeWidth=1;shadow=0;labelBackgroundColor=none;exitX=0.5;exitY=1;exitDx=0;exitDy=0;" parent="WIyWlLk6GJQsqaUBKTNV-1" source="64sySyNow4ogs9UG_H_0-5" target="WIyWlLk6GJQsqaUBKTNV-7" edge="1">
          <mxGeometry y="20" relative="1" as="geometry">
            <mxPoint as="offset" />
            <mxPoint x="320" y="250" as="sourcePoint" />
          </mxGeometry>
        </mxCell>
        <mxCell id="WIyWlLk6GJQsqaUBKTNV-7" value="联系相关人进行回滚" style="rounded=1;whiteSpace=wrap;html=1;fontSize=12;glass=0;strokeWidth=1;shadow=0;" parent="WIyWlLk6GJQsqaUBKTNV-1" vertex="1">
          <mxGeometry x="120" y="310" width="200" height="40" as="geometry" />
        </mxCell>
        <mxCell id="64sySyNow4ogs9UG_H_0-0" value="启动 UIOC" style="rounded=1;whiteSpace=wrap;html=1;" parent="WIyWlLk6GJQsqaUBKTNV-1" vertex="1">
          <mxGeometry x="120" y="151" width="200" height="40" as="geometry" />
        </mxCell>
        <mxCell id="64sySyNow4ogs9UG_H_0-3" value="" style="endArrow=none;dashed=1;html=1;rounded=0;entryX=0;entryY=0.5;entryDx=0;entryDy=0;" parent="WIyWlLk6GJQsqaUBKTNV-1" target="64sySyNow4ogs9UG_H_0-4" edge="1">
          <mxGeometry width="50" height="50" relative="1" as="geometry">
            <mxPoint x="321" y="171" as="sourcePoint" />
            <mxPoint x="441" y="171" as="targetPoint" />
            <Array as="points">
              <mxPoint x="410" y="-220" />
            </Array>
          </mxGeometry>
        </mxCell>
        <mxCell id="64sySyNow4ogs9UG_H_0-4" value="+ 拉一个丰声在线会议&lt;br&gt;+ 相关沟通统一在 UIOC 群里&lt;br&gt;（如果在公司，统一去白云山）&lt;br&gt;&lt;font style=&quot;border-color: var(--border-color);&quot; color=&quot;#990000&quot;&gt;&amp;lt;人员的合理安排&amp;gt;&lt;/font&gt;&lt;br style=&quot;border-color: var(--border-color);&quot;&gt;+安排好跟进处理问题的同学(一个RD跟进是否有上线单和回滚；另一个RD根据日志和监控排查问题)&lt;br style=&quot;border-color: var(--border-color);&quot;&gt;+安排好对外响应业务的同学&lt;br style=&quot;border-color: var(--border-color);&quot;&gt;+安排好测试，准备好测试环境" style="rounded=0;whiteSpace=wrap;html=1;align=left;dashed=1;" parent="WIyWlLk6GJQsqaUBKTNV-1" vertex="1">
          <mxGeometry x="760" y="-300" width="190" height="140" as="geometry" />
        </mxCell>
        <mxCell id="64sySyNow4ogs9UG_H_0-5" value="是否有相关上线" style="rhombus;whiteSpace=wrap;html=1;" parent="WIyWlLk6GJQsqaUBKTNV-1" vertex="1">
          <mxGeometry x="120" y="230" width="200" height="40" as="geometry" />
        </mxCell>
        <mxCell id="64sySyNow4ogs9UG_H_0-6" value="" style="rounded=0;html=1;jettySize=auto;orthogonalLoop=1;fontSize=11;endArrow=block;endFill=0;endSize=8;strokeWidth=1;shadow=0;labelBackgroundColor=none;edgeStyle=orthogonalEdgeStyle;" parent="WIyWlLk6GJQsqaUBKTNV-1" edge="1">
          <mxGeometry relative="1" as="geometry">
            <mxPoint x="219.5" y="191" as="sourcePoint" />
            <mxPoint x="219.5" y="231" as="targetPoint" />
            <Array as="points">
              <mxPoint x="219.5" y="211" />
              <mxPoint x="219.5" y="211" />
            </Array>
          </mxGeometry>
        </mxCell>
        <mxCell id="64sySyNow4ogs9UG_H_0-8" value="是否高峰期" style="rhombus;whiteSpace=wrap;html=1;" parent="WIyWlLk6GJQsqaUBKTNV-1" vertex="1">
          <mxGeometry x="120" y="390" width="200" height="40" as="geometry" />
        </mxCell>
        <mxCell id="64sySyNow4ogs9UG_H_0-9" value="No" style="edgeStyle=orthogonalEdgeStyle;rounded=0;html=1;jettySize=auto;orthogonalLoop=1;fontSize=11;endArrow=block;endFill=0;endSize=8;strokeWidth=1;shadow=0;labelBackgroundColor=none;exitX=0.5;exitY=1;exitDx=0;exitDy=0;" parent="WIyWlLk6GJQsqaUBKTNV-1" edge="1">
          <mxGeometry x="1" y="63" relative="1" as="geometry">
            <mxPoint x="-42" y="58" as="offset" />
            <mxPoint x="219.5" y="350" as="sourcePoint" />
            <mxPoint x="219.5" y="390" as="targetPoint" />
          </mxGeometry>
        </mxCell>
        <mxCell id="64sySyNow4ogs9UG_H_0-10" value="直接回滚（降级）观察服务是否恢复" style="rounded=1;whiteSpace=wrap;html=1;fontSize=12;glass=0;strokeWidth=1;shadow=0;" parent="WIyWlLk6GJQsqaUBKTNV-1" vertex="1">
          <mxGeometry x="120" y="469" width="200" height="40" as="geometry" />
        </mxCell>
        <mxCell id="64sySyNow4ogs9UG_H_0-11" value="" style="edgeStyle=orthogonalEdgeStyle;rounded=0;html=1;jettySize=auto;orthogonalLoop=1;fontSize=11;endArrow=block;endFill=0;endSize=8;strokeWidth=1;shadow=0;labelBackgroundColor=none;exitX=0.5;exitY=1;exitDx=0;exitDy=0;" parent="WIyWlLk6GJQsqaUBKTNV-1" edge="1">
          <mxGeometry x="1" y="81" relative="1" as="geometry">
            <mxPoint x="-40" y="68" as="offset" />
            <mxPoint x="219.5" y="430" as="sourcePoint" />
            <mxPoint x="219.5" y="470" as="targetPoint" />
          </mxGeometry>
        </mxCell>
        <mxCell id="64sySyNow4ogs9UG_H_0-12" value="Yes" style="edgeStyle=orthogonalEdgeStyle;rounded=0;html=1;jettySize=auto;orthogonalLoop=1;fontSize=11;endArrow=block;endFill=0;endSize=8;strokeWidth=1;shadow=0;labelBackgroundColor=none;entryX=0.5;entryY=0;entryDx=0;entryDy=0;" parent="WIyWlLk6GJQsqaUBKTNV-1" target="64sySyNow4ogs9UG_H_0-13" edge="1">
          <mxGeometry x="-0.1765" y="-10" relative="1" as="geometry">
            <mxPoint as="offset" />
            <mxPoint x="120" y="410" as="sourcePoint" />
            <mxPoint x="400" y="410" as="targetPoint" />
          </mxGeometry>
        </mxCell>
        <mxCell id="64sySyNow4ogs9UG_H_0-13" value="评估是否要扩机器，再回滚（降级）" style="rounded=1;whiteSpace=wrap;html=1;fontSize=12;glass=0;strokeWidth=1;shadow=0;" parent="WIyWlLk6GJQsqaUBKTNV-1" vertex="1">
          <mxGeometry x="-140" y="469" width="200" height="40" as="geometry" />
        </mxCell>
        <mxCell id="64sySyNow4ogs9UG_H_0-14" value="" style="rounded=0;html=1;jettySize=auto;orthogonalLoop=1;fontSize=11;endArrow=block;endFill=0;endSize=8;strokeWidth=1;shadow=0;labelBackgroundColor=none;edgeStyle=orthogonalEdgeStyle;exitX=0.5;exitY=1;exitDx=0;exitDy=0;" parent="WIyWlLk6GJQsqaUBKTNV-1" source="64sySyNow4ogs9UG_H_0-13" edge="1">
          <mxGeometry y="20" relative="1" as="geometry">
            <mxPoint as="offset" />
            <mxPoint x="500" y="510" as="sourcePoint" />
            <mxPoint x="220" y="529" as="targetPoint" />
            <Array as="points">
              <mxPoint x="-40" y="529" />
            </Array>
          </mxGeometry>
        </mxCell>
        <mxCell id="64sySyNow4ogs9UG_H_0-15" value="" style="edgeStyle=orthogonalEdgeStyle;rounded=0;html=1;jettySize=auto;orthogonalLoop=1;fontSize=11;endArrow=block;endFill=0;endSize=8;strokeWidth=1;shadow=0;labelBackgroundColor=none;exitX=0.5;exitY=1;exitDx=0;exitDy=0;" parent="WIyWlLk6GJQsqaUBKTNV-1" edge="1">
          <mxGeometry x="1" y="65" relative="1" as="geometry">
            <mxPoint x="-24" y="49" as="offset" />
            <mxPoint x="219.5" y="509" as="sourcePoint" />
            <mxPoint x="219.5" y="549" as="targetPoint" />
          </mxGeometry>
        </mxCell>
        <mxCell id="64sySyNow4ogs9UG_H_0-16" value="服务恢复" style="rhombus;whiteSpace=wrap;html=1;" parent="WIyWlLk6GJQsqaUBKTNV-1" vertex="1">
          <mxGeometry x="120" y="549" width="200" height="40" as="geometry" />
        </mxCell>
        <mxCell id="64sySyNow4ogs9UG_H_0-17" value="Yes" style="edgeStyle=orthogonalEdgeStyle;rounded=0;html=1;jettySize=auto;orthogonalLoop=1;fontSize=11;endArrow=block;endFill=0;endSize=8;strokeWidth=1;shadow=0;labelBackgroundColor=none;exitX=0.5;exitY=1;exitDx=0;exitDy=0;" parent="WIyWlLk6GJQsqaUBKTNV-1" edge="1">
          <mxGeometry x="0.0476" y="20" relative="1" as="geometry">
            <mxPoint as="offset" />
            <mxPoint x="219.5" y="589" as="sourcePoint" />
            <mxPoint x="219.5" y="629" as="targetPoint" />
          </mxGeometry>
        </mxCell>
        <mxCell id="64sySyNow4ogs9UG_H_0-20" value="群里同步 &amp;amp; 关闭 UIOC &amp;amp; 处理后续" style="rounded=1;whiteSpace=wrap;html=1;fontSize=12;glass=0;strokeWidth=1;shadow=0;" parent="WIyWlLk6GJQsqaUBKTNV-1" vertex="1">
          <mxGeometry x="120" y="630" width="200" height="40" as="geometry" />
        </mxCell>
        <mxCell id="64sySyNow4ogs9UG_H_0-25" value="" style="rounded=0;html=1;jettySize=auto;orthogonalLoop=1;fontSize=11;endArrow=block;endFill=0;endSize=8;strokeWidth=1;shadow=0;labelBackgroundColor=none;edgeStyle=orthogonalEdgeStyle;" parent="WIyWlLk6GJQsqaUBKTNV-1" edge="1">
          <mxGeometry y="20" relative="1" as="geometry">
            <mxPoint as="offset" />
            <mxPoint x="320" y="249.5" as="sourcePoint" />
            <mxPoint x="360" y="249.5" as="targetPoint" />
            <Array as="points">
              <mxPoint x="360" y="249.5" />
            </Array>
          </mxGeometry>
        </mxCell>
        <mxCell id="64sySyNow4ogs9UG_H_0-26" value="No" style="text;html=1;align=center;verticalAlign=middle;resizable=0;points=[];autosize=1;strokeColor=none;fillColor=none;" parent="WIyWlLk6GJQsqaUBKTNV-1" vertex="1">
          <mxGeometry x="320" y="220" width="40" height="30" as="geometry" />
        </mxCell>
        <mxCell id="64sySyNow4ogs9UG_H_0-33" value="" style="endArrow=none;dashed=1;html=1;rounded=0;" parent="WIyWlLk6GJQsqaUBKTNV-1" edge="1">
          <mxGeometry width="50" height="50" relative="1" as="geometry">
            <mxPoint x="483.2432432432429" y="220" as="sourcePoint" />
            <mxPoint x="755" y="-60" as="targetPoint" />
            <Array as="points">
              <mxPoint x="544" y="-61" />
            </Array>
          </mxGeometry>
        </mxCell>
        <mxCell id="64sySyNow4ogs9UG_H_0-34" value="+ 通过监控、日志定位故障原因&lt;br&gt;+ 拉相关负责这块业务的同学&lt;br&gt;" style="rounded=0;whiteSpace=wrap;html=1;align=left;dashed=1;" parent="WIyWlLk6GJQsqaUBKTNV-1" vertex="1">
          <mxGeometry x="760" y="-70" width="180" height="60" as="geometry" />
        </mxCell>
        <mxCell id="64sySyNow4ogs9UG_H_0-35" value="拉高工&amp;amp;负责该功能的同学跟进处理&lt;br&gt;&lt;font color=&quot;#ad0000&quot;&gt;（原则：尽快恢复服务、降低影响）&lt;/font&gt;" style="rounded=1;whiteSpace=wrap;html=1;fontSize=12;glass=0;strokeWidth=1;shadow=0;" parent="WIyWlLk6GJQsqaUBKTNV-1" vertex="1">
          <mxGeometry x="600" y="310" width="200" height="40" as="geometry" />
        </mxCell>
        <mxCell id="64sySyNow4ogs9UG_H_0-37" value="Yes" style="edgeStyle=orthogonalEdgeStyle;rounded=0;html=1;jettySize=auto;orthogonalLoop=1;fontSize=11;endArrow=block;endFill=0;endSize=8;strokeWidth=1;shadow=0;labelBackgroundColor=none;exitX=0.5;exitY=1;exitDx=0;exitDy=0;" parent="WIyWlLk6GJQsqaUBKTNV-1" edge="1" source="64sySyNow4ogs9UG_H_0-35">
          <mxGeometry x="-0.6721" y="-15" relative="1" as="geometry">
            <mxPoint as="offset" />
            <mxPoint x="609" y="349" as="sourcePoint" />
            <mxPoint x="220" y="529" as="targetPoint" />
            <Array as="points">
              <mxPoint x="700" y="529" />
            </Array>
          </mxGeometry>
        </mxCell>
        <mxCell id="64sySyNow4ogs9UG_H_0-41" value="No" style="edgeStyle=orthogonalEdgeStyle;rounded=0;html=1;jettySize=auto;orthogonalLoop=1;fontSize=11;endArrow=block;endFill=0;endSize=8;strokeWidth=1;shadow=0;labelBackgroundColor=none;entryX=0.5;entryY=1.1;entryDx=0;entryDy=0;entryPerimeter=0;" parent="WIyWlLk6GJQsqaUBKTNV-1" target="64sySyNow4ogs9UG_H_0-26" edge="1">
          <mxGeometry x="-0.9702" y="14" relative="1" as="geometry">
            <mxPoint as="offset" />
            <mxPoint x="320" y="569" as="sourcePoint" />
            <mxPoint x="340" y="389" as="targetPoint" />
            <Array as="points">
              <mxPoint x="340" y="569" />
            </Array>
          </mxGeometry>
        </mxCell>
        <mxCell id="64sySyNow4ogs9UG_H_0-42" value="基础服务" style="edgeStyle=orthogonalEdgeStyle;rounded=0;html=1;jettySize=auto;orthogonalLoop=1;fontSize=11;endArrow=block;endFill=0;endSize=8;strokeWidth=1;shadow=0;labelBackgroundColor=none;exitX=1;exitY=0.5;exitDx=0;exitDy=0;" parent="WIyWlLk6GJQsqaUBKTNV-1" source="EbL69Rn5KnJV2FLwqoe4-1" edge="1">
          <mxGeometry x="0.9112" y="-30" relative="1" as="geometry">
            <mxPoint as="offset" />
            <mxPoint x="830" y="250" as="sourcePoint" />
            <mxPoint x="930" y="308" as="targetPoint" />
          </mxGeometry>
        </mxCell>
        <mxCell id="64sySyNow4ogs9UG_H_0-44" value="mq、redis、mysql&lt;br&gt;是否需要摘流量、扩机器、调配置" style="rounded=1;whiteSpace=wrap;html=1;fontSize=12;glass=0;strokeWidth=1;shadow=0;" parent="WIyWlLk6GJQsqaUBKTNV-1" vertex="1">
          <mxGeometry x="827" y="310" width="200" height="40" as="geometry" />
        </mxCell>
        <mxCell id="64sySyNow4ogs9UG_H_0-45" value="" style="endArrow=none;html=1;rounded=0;entryX=0.5;entryY=1;entryDx=0;entryDy=0;edgeStyle=orthogonalEdgeStyle;" parent="WIyWlLk6GJQsqaUBKTNV-1" edge="1" target="64sySyNow4ogs9UG_H_0-44">
          <mxGeometry width="50" height="50" relative="1" as="geometry">
            <mxPoint x="610" y="529" as="sourcePoint" />
            <mxPoint x="890" y="349" as="targetPoint" />
          </mxGeometry>
        </mxCell>
        <mxCell id="64sySyNow4ogs9UG_H_0-46" value="" style="endArrow=none;dashed=1;html=1;rounded=0;" parent="WIyWlLk6GJQsqaUBKTNV-1" edge="1">
          <mxGeometry width="50" height="50" relative="1" as="geometry">
            <mxPoint x="716" y="238" as="sourcePoint" />
            <mxPoint x="760" y="69" as="targetPoint" />
            <Array as="points">
              <mxPoint x="731" y="69" />
            </Array>
          </mxGeometry>
        </mxCell>
        <mxCell id="64sySyNow4ogs9UG_H_0-47" value="+ 通过监控、日志定位故障原因" style="rounded=0;whiteSpace=wrap;html=1;align=left;dashed=1;" parent="WIyWlLk6GJQsqaUBKTNV-1" vertex="1">
          <mxGeometry x="760" y="30" width="180" height="100" as="geometry" />
        </mxCell>
        <mxCell id="64sySyNow4ogs9UG_H_0-48" value="当前已有预案&lt;br&gt;https://confluence.sf-express.com/pages/viewpage.action?pageId=325584882" style="rounded=0;whiteSpace=wrap;html=1;align=left;dashed=1;" parent="WIyWlLk6GJQsqaUBKTNV-1" vertex="1">
          <mxGeometry x="760" y="-140" width="430" height="60" as="geometry" />
        </mxCell>
        <mxCell id="64sySyNow4ogs9UG_H_0-49" value="" style="endArrow=none;dashed=1;html=1;rounded=0;exitX=0;exitY=0;exitDx=0;exitDy=0;" parent="WIyWlLk6GJQsqaUBKTNV-1" edge="1" source="EbL69Rn5KnJV2FLwqoe4-2">
          <mxGeometry width="50" height="50" relative="1" as="geometry">
            <mxPoint x="420" y="220" as="sourcePoint" />
            <mxPoint x="760" y="-109" as="targetPoint" />
            <Array as="points">
              <mxPoint x="500" y="-109" />
              <mxPoint x="644" y="-109" />
            </Array>
          </mxGeometry>
        </mxCell>
        <mxCell id="EbL69Rn5KnJV2FLwqoe4-0" value="" style="endArrow=classic;html=1;rounded=0;exitX=1;exitY=0.5;exitDx=0;exitDy=0;entryX=0.5;entryY=0;entryDx=0;entryDy=0;edgeStyle=orthogonalEdgeStyle;" edge="1" parent="WIyWlLk6GJQsqaUBKTNV-1" source="EbL69Rn5KnJV2FLwqoe4-1" target="64sySyNow4ogs9UG_H_0-35">
          <mxGeometry width="50" height="50" relative="1" as="geometry">
            <mxPoint x="730" y="270" as="sourcePoint" />
            <mxPoint x="600" y="260" as="targetPoint" />
          </mxGeometry>
        </mxCell>
        <mxCell id="EbL69Rn5KnJV2FLwqoe4-7" value="业务服务" style="edgeLabel;html=1;align=center;verticalAlign=middle;resizable=0;points=[];" vertex="1" connectable="0" parent="EbL69Rn5KnJV2FLwqoe4-0">
          <mxGeometry x="0.7118" y="-1" relative="1" as="geometry">
            <mxPoint x="-29" y="5" as="offset" />
          </mxGeometry>
        </mxCell>
        <mxCell id="EbL69Rn5KnJV2FLwqoe4-1" value="业务服务 or 基础服务问题？" style="rhombus;whiteSpace=wrap;html=1;" vertex="1" parent="WIyWlLk6GJQsqaUBKTNV-1">
          <mxGeometry x="360" y="230" width="200" height="40" as="geometry" />
        </mxCell>
        <mxCell id="EbL69Rn5KnJV2FLwqoe4-2" value="是否有降级预案" style="rhombus;whiteSpace=wrap;html=1;" vertex="1" parent="WIyWlLk6GJQsqaUBKTNV-1">
          <mxGeometry x="360" y="300" width="200" height="40" as="geometry" />
        </mxCell>
        <mxCell id="EbL69Rn5KnJV2FLwqoe4-3" value="" style="endArrow=classic;html=1;rounded=0;exitX=0.5;exitY=1;exitDx=0;exitDy=0;" edge="1" parent="WIyWlLk6GJQsqaUBKTNV-1" source="EbL69Rn5KnJV2FLwqoe4-1" target="EbL69Rn5KnJV2FLwqoe4-2">
          <mxGeometry width="50" height="50" relative="1" as="geometry">
            <mxPoint x="510" y="260" as="sourcePoint" />
            <mxPoint x="560" y="210" as="targetPoint" />
          </mxGeometry>
        </mxCell>
        <mxCell id="EbL69Rn5KnJV2FLwqoe4-4" value="" style="endArrow=classic;html=1;rounded=0;exitX=0.5;exitY=1;exitDx=0;exitDy=0;edgeStyle=orthogonalEdgeStyle;" edge="1" parent="WIyWlLk6GJQsqaUBKTNV-1" source="EbL69Rn5KnJV2FLwqoe4-2">
          <mxGeometry width="50" height="50" relative="1" as="geometry">
            <mxPoint x="510" y="260" as="sourcePoint" />
            <mxPoint x="220" y="390" as="targetPoint" />
            <Array as="points">
              <mxPoint x="460" y="370" />
              <mxPoint x="220" y="370" />
            </Array>
          </mxGeometry>
        </mxCell>
        <mxCell id="EbL69Rn5KnJV2FLwqoe4-5" value="是" style="edgeLabel;html=1;align=center;verticalAlign=middle;resizable=0;points=[];" vertex="1" connectable="0" parent="EbL69Rn5KnJV2FLwqoe4-4">
          <mxGeometry x="-0.3276" y="-1" relative="1" as="geometry">
            <mxPoint as="offset" />
          </mxGeometry>
        </mxCell>
      </root>
    </mxGraphModel>
  </diagram>
</mxfile>
